<svg xmlns="http://www.w3.org/2000/svg">
  <defs>
    <symbol id="spark-4" viewBox="0 0 24 24">
      <path d="M12 2.8c.8 5.1 2.1 7.7 7.2 9.2-5.1 1.5-6.4 4.1-7.2 9.2-.8-5.1-2.1-7.7-7.2-9.2C9.9 10.5 11.2 7.9 12 2.8Z" fill="none" stroke="currentColor" stroke-width="1.25" stroke-linejoin="round"/>
    </symbol>
    <symbol id="room-door" viewBox="0 0 32 40">
      <path d="M7 34V17.2C7 9.4 10.7 5 16 5s9 4.4 9 12.2V34" fill="none" stroke="currentColor" stroke-width="1.35" stroke-linecap="round"/>
      <path d="M10.5 34V17.4c0-5.8 2.2-8.7 5.5-8.7s5.5 2.9 5.5 8.7V34" fill="none" stroke="currentColor" stroke-width="1" opacity=".72"/>
      <circle cx="18.8" cy="22.5" r="1.05" fill="currentColor" opacity=".8"/>
      <path d="M5 34h22" fill="none" stroke="currentColor" stroke-width="1" stroke-linecap="round" opacity=".55"/>
    </symbol>
    <symbol id="moon-phase" viewBox="0 0 36 24">
      <path d="M13.6 4.2a8.1 8.1 0 1 0 0 15.6c-3.1-1.5-4.8-4-4.8-7.8s1.7-6.3 4.8-7.8Z" fill="none" stroke="currentColor" stroke-width="1.15"/>
      <circle cx="24.4" cy="12" r="5.8" fill="none" stroke="currentColor" stroke-width="1.05" opacity=".66"/>
      <path d="M24.4 6.2c2.2 2 3.2 3.9 3.2 5.8s-1 3.8-3.2 5.8" fill="none" stroke="currentColor" stroke-width=".9" opacity=".45"/>
    </symbol>
    <symbol id="soft-bow" viewBox="0 0 46 36">
      <path d="M23 17.5c-3.8-6-8.1-8.7-12.1-8.7-3.1 0-5.2 1.8-5.2 4.4 0 3.2 3.2 5.5 8.1 5.5 3 0 5.9-.5 9.2-1.2Z" fill="none" stroke="currentColor" stroke-width="1.2" stroke-linecap="round" stroke-linejoin="round"/>
      <path d="M23 17.5c3.8-6 8.1-8.7 12.1-8.7 3.1 0 5.2 1.8 5.2 4.4 0 3.2-3.2 5.5-8.1 5.5-3 0-5.9-.5-9.2-1.2Z" fill="none" stroke="currentColor" stroke-width="1.2" stroke-linecap="round" stroke-linejoin="round"/>
      <path d="M23 17.5c-1.8 4.9-2.5 9.2-2.1 13M23 17.5c2.1 4.5 3.1 8.7 3.1 12.6" fill="none" stroke="currentColor" stroke-width="1.05" stroke-linecap="round"/>
      <circle cx="23" cy="17.5" r="2.3" fill="none" stroke="currentColor" stroke-width="1.1"/>
    </symbol>
    <symbol id="paper-corner" viewBox="0 0 36 36">
      <path d="M6 7.5h19l5 5V29H6Z" fill="none" stroke="currentColor" stroke-width="1.05" stroke-linejoin="round"/>
      <path d="M25 7.5v5h5" fill="none" stroke="currentColor" stroke-width="1.05" stroke-linejoin="round"/>
      <path d="M9.5 24.5c4.2-1 7.9-.9 11.1.3" fill="none" stroke="currentColor" stroke-width=".9" stroke-linecap="round" opacity=".5"/>
    </symbol>
    <symbol id="mist-flower" viewBox="0 0 42 42">
      <path d="M21 20.5C12.4 16.9 10.7 9.8 15 6.8c4.1-2.8 7.1 1.7 6 8.7 2.2-6.7 8.1-9.2 11.4-5.6 3.5 3.8-.4 8.7-7.5 10.4 7.1-.3 11.9 4 9.7 8.5-2.3 4.6-8.5 2.6-12.9-3 2.7 6.5-.2 12.2-5 11.4-5-.8-5-7.4-.6-13-5.4 4.8-11.7 4.2-12.6-.7-.9-5.1 5.1-7.8 11.9-5.2Z" fill="none" stroke="currentColor" stroke-width="1.05" stroke-linejoin="round" opacity=".86"/>
      <circle cx="21" cy="21" r="3.2" fill="none" stroke="currentColor" stroke-width=".95" opacity=".72"/>
    </symbol>
    <symbol id="relation-trace" viewBox="0 0 64 30">
      <path d="M4 19.5C14 7.8 24 8.1 31.2 15.3c6.8 6.7 15.1 8.3 28.8-2.1" fill="none" stroke="currentColor" stroke-width="1.25" stroke-linecap="round"/>
      <path d="M4 12.4c10.8 9.7 20.4 9.4 27.1 2.5C38.3 7.5 47 6.6 60 16.2" fill="none" stroke="currentColor" stroke-width="1.05" stroke-linecap="round" opacity=".52"/>
    </symbol>
  </defs>
</svg>